<svg id="changeColor" fill="#DC7633" xmlns="http://www.w3.org/2000/svg" xmlns:xlink="http://www.w3.org/1999/xlink" width="100" zoomAndPan="magnify" viewBox="0 0 375 374.9999" height="100" version="1.0"><defs><path id="pathAttribute" d="M 24.976562 28.769531 L 359.476562 28.769531 L 359.476562 337.769531 L 24.976562 337.769531 Z M 24.976562 28.769531 "></path></defs><g><path id="pathAttribute" d="M 192.226562 28.871094 C 186.613281 28.878906 181.011719 29.171875 175.421875 29.746094 C 169.835938 30.320312 164.292969 31.171875 158.792969 32.304688 C 153.289062 33.4375 147.859375 34.847656 142.5 36.527344 C 137.140625 38.207031 131.878906 40.15625 126.714844 42.367188 C 121.550781 44.578125 116.511719 47.042969 111.597656 49.765625 C 106.679688 52.484375 101.914062 55.445312 97.296875 58.644531 C 92.679688 61.847656 88.234375 65.273438 83.960938 68.921875 C 79.6875 72.570312 75.609375 76.425781 71.722656 80.488281 L 312.925781 80.488281 C 309.035156 76.421875 304.949219 72.5625 300.667969 68.90625 C 296.390625 65.253906 291.9375 61.824219 287.3125 58.617188 C 282.6875 55.414062 277.910156 52.453125 272.988281 49.730469 C 268.0625 47.007812 263.015625 44.539062 257.84375 42.328125 C 252.671875 40.117188 247.402344 38.171875 242.03125 36.492188 C 236.664062 34.8125 231.226562 33.40625 225.714844 32.277344 C 220.207031 31.148438 214.652344 30.296875 209.058594 29.726562 C 203.460938 29.160156 197.851562 28.875 192.226562 28.871094 Z M 60.179688 93.894531 C 55.53125 99.878906 51.304688 106.148438 47.503906 112.707031 L 336.882812 112.707031 C 333.152344 106.15625 328.996094 99.882812 324.414062 93.894531 Z M 39.855469 127.660156 C 37.417969 133.0625 35.269531 138.574219 33.414062 144.203125 L 350.945312 144.203125 C 349.097656 138.574219 346.960938 133.0625 344.535156 127.660156 Z M 28.546875 162.148438 C 27.589844 166.882812 26.839844 171.648438 26.292969 176.449219 L 358.082031 176.449219 C 357.511719 171.648438 356.738281 166.882812 355.757812 162.148438 Z M 25 195.886719 C 24.992188 196.042969 24.984375 196.199219 24.976562 196.355469 C 24.984375 200.472656 25.144531 204.585938 25.457031 208.691406 L 358.859375 208.691406 C 359.21875 204.585938 359.421875 200.476562 359.476562 196.355469 C 359.472656 196.199219 359.46875 196.042969 359.460938 195.886719 Z M 28.488281 229.628906 C 29.203125 233.425781 30.046875 237.195312 31.023438 240.9375 L 353.261719 240.9375 C 354.351562 237.199219 355.3125 233.429688 356.144531 229.628906 Z M 39.167969 263.367188 C 40.5625 266.6875 42.058594 269.957031 43.664062 273.179688 L 340.675781 273.179688 C 342.363281 269.960938 343.941406 266.691406 345.410156 263.367188 Z M 58.820312 297.109375 C 60.980469 299.953125 63.230469 302.726562 65.570312 305.425781 L 319.054688 305.425781 C 321.3125 302.722656 323.484375 299.949219 325.570312 297.109375 Z M 92.882812 330.847656 C 96.109375 333.242188 99.421875 335.515625 102.8125 337.671875 L 281.929688 337.671875 C 285.226562 335.511719 288.449219 333.234375 291.585938 330.847656 L 92.878906 330.847656 Z M 92.882812 330.847656 " fill-opacity="1" fill-rule="nonzero"></path></g><g id="inner-icon" transform="translate(85, 75)"> <svg xmlns="http://www.w3.org/2000/svg" viewBox="0 0 512 512" id="IconChangeColor" height="212" width="212"><!--! Font Awesome Free 6.1.1 by @fontawesome - https://fontawesome.com License - https://fontawesome.com/license/free (Icons: CC BY 4.0, Fonts: SIL OFL 1.1, Code: MIT License) Copyright 2022 Fonticons, Inc. --><path d="M512 329.1V432c0 8.836-7.164 16-16 16H368c-8.836 0-16-7.164-16-16V416l-85.33-64H95.1c-16.47 0-31.44-13.44-31.96-29.9C62.87 285.8 91.96 256 127.1 256h104.9c13.77 0 26-8.811 30.36-21.88l10.67-32C280.9 181.4 265.4 160 243.6 160H63.1C27.95 160-1.129 130.2 .0352 93.9C.5625 77.44 15.53 64 31.1 64h271.2c26.26 0 50.84 12.88 65.79 34.47l128.8 185.1C507 297.8 512 313.7 512 329.1z" id="mainIconPathAttribute" fill="#000000"></path></svg> </g></svg>